<mxfile host="app.diagrams.net" modified="2023-09-24T20:59:58.567Z" agent="Mozilla/5.0 (Macintosh; Intel Mac OS X 10_15_7) AppleWebKit/537.36 (KHTML, like Gecko) Chrome/117.0.0.0 Safari/537.36" etag="EdBzXs04e93KzakxOlR_" version="21.8.2" type="github">
  <diagram name="Page-1" id="ySpeJ933tSVOwGI5op4W">
    <mxGraphModel dx="1434" dy="765" grid="1" gridSize="10" guides="1" tooltips="1" connect="1" arrows="1" fold="1" page="1" pageScale="1" pageWidth="827" pageHeight="1169" math="0" shadow="0">
      <root>
        <mxCell id="0" />
        <mxCell id="1" parent="0" />
        <mxCell id="OnRDwM-ZE7Nu3e7dxha8-1" value="sar" style="text;html=1;strokeColor=none;fillColor=none;align=center;verticalAlign=middle;whiteSpace=wrap;rounded=0;" parent="1" vertex="1">
          <mxGeometry x="150" y="270" width="50" height="20" as="geometry" />
        </mxCell>
        <mxCell id="OnRDwM-ZE7Nu3e7dxha8-2" value="高性能MySQL" style="text;html=1;strokeColor=none;fillColor=none;align=center;verticalAlign=middle;whiteSpace=wrap;rounded=0;" parent="1" vertex="1">
          <mxGeometry x="100" y="170" width="130" height="40" as="geometry" />
        </mxCell>
        <mxCell id="OnRDwM-ZE7Nu3e7dxha8-3" value="MySQL 开启CPU压缩" style="text;html=1;strokeColor=none;fillColor=none;align=center;verticalAlign=middle;whiteSpace=wrap;rounded=0;" parent="1" vertex="1">
          <mxGeometry x="330" y="175" width="120" height="30" as="geometry" />
        </mxCell>
        <mxCell id="OnRDwM-ZE7Nu3e7dxha8-4" value="优先级反转" style="text;html=1;strokeColor=none;fillColor=none;align=center;verticalAlign=middle;whiteSpace=wrap;rounded=0;" parent="1" vertex="1">
          <mxGeometry x="260" y="430" width="120" height="30" as="geometry" />
        </mxCell>
        <mxCell id="OnRDwM-ZE7Nu3e7dxha8-5" value="Linux调度器的原理" style="text;html=1;strokeColor=none;fillColor=none;align=center;verticalAlign=middle;whiteSpace=wrap;rounded=0;" parent="1" vertex="1">
          <mxGeometry x="270" y="360" width="120" height="30" as="geometry" />
        </mxCell>
      </root>
    </mxGraphModel>
  </diagram>
</mxfile>
